<svg width="1200" height="630" viewBox="0 0 1200 630" fill="none" xmlns="http://www.w3.org/2000/svg">
  <rect width="1200" height="630" fill="#FDFCF0"/>
  <rect x="58" y="58" width="1084" height="514" rx="28" fill="#FFFFFF" stroke="#E5E7EB" stroke-width="4"/>
  <rect x="98" y="102" width="420" height="420" rx="24" fill="#FFF5F0"/>
  <rect x="132" y="156" width="180" height="28" rx="14" fill="#FFB088"/>
  <rect x="132" y="204" width="250" height="20" rx="10" fill="#FED7AA"/>
  <rect x="132" y="238" width="220" height="20" rx="10" fill="#FDE68A"/>
  <rect x="132" y="272" width="260" height="20" rx="10" fill="#A7F3D0"/>
  <rect x="132" y="316" width="330" height="10" rx="5" fill="#E5E7EB"/>
  <rect x="132" y="338" width="260" height="10" rx="5" fill="#E5E7EB"/>
  <rect x="132" y="360" width="290" height="10" rx="5" fill="#E5E7EB"/>
  <circle cx="454" cy="444" r="38" fill="#FF7F50"/>
  <path d="M439 444L451 456L471 434" stroke="white" stroke-width="8" stroke-linecap="round" stroke-linejoin="round"/>
  <text x="560" y="250" fill="#0F172A" font-family="Arial, Helvetica, sans-serif" font-size="74" font-weight="700">Nós 2 Reais</text>
  <text x="560" y="308" fill="#334155" font-family="Arial, Helvetica, sans-serif" font-size="34">Finanças do casal, juntos e de verdade.</text>
  <text x="560" y="390" fill="#C2410C" font-family="Arial, Helvetica, sans-serif" font-size="30" font-weight="700">Planejem. Registrem. Evoluam.</text>
</svg>

